<mxfile host="app.diagrams.net" modified="2020-08-25T04:44:41.737Z" agent="5.0 (Macintosh; Intel Mac OS X 10_15_6) AppleWebKit/537.36 (KHTML, like Gecko) Chrome/84.0.4147.125 Safari/537.36" etag="qQAzyF8MpIiyk9zEhdFv" version="13.6.1" type="github">
  <diagram name="Page-1" id="74e2e168-ea6b-b213-b513-2b3c1d86103e">
    <mxGraphModel dx="946" dy="622" grid="1" gridSize="10" guides="1" tooltips="1" connect="1" arrows="1" fold="1" page="1" pageScale="1" pageWidth="1100" pageHeight="850" background="#ffffff" math="0" shadow="0">
      <root>
        <mxCell id="0" />
        <mxCell id="1" parent="0" />
        <mxCell id="77e6c97f196da883-1" value="MCMC for MRA - spatially varying coefficients" style="swimlane;html=1;childLayout=stackLayout;startSize=20;rounded=0;shadow=0;labelBackgroundColor=none;strokeWidth=1;fontFamily=Verdana;fontSize=8;align=center;" parent="1" vertex="1">
          <mxGeometry x="70" y="40" width="490" height="750" as="geometry" />
        </mxCell>
        <mxCell id="77e6c97f196da883-2" value="run.R" style="swimlane;html=1;startSize=20;" parent="77e6c97f196da883-1" vertex="1">
          <mxGeometry y="20" width="160" height="730" as="geometry" />
        </mxCell>
        <mxCell id="77e6c97f196da883-10" value="define parameter values and starting values" style="rounded=1;whiteSpace=wrap;html=1;shadow=0;labelBackgroundColor=none;strokeWidth=1;fontFamily=Verdana;fontSize=8;align=center;" parent="77e6c97f196da883-2" vertex="1">
          <mxGeometry x="20" y="240" width="100" height="60" as="geometry" />
        </mxCell>
        <mxCell id="77e6c97f196da883-11" value="construct MRA resolution: Tm, TSm, Qlist matrices and nn, hh" style="rounded=1;whiteSpace=wrap;html=1;shadow=0;labelBackgroundColor=none;strokeWidth=1;fontFamily=Verdana;fontSize=8;align=center;fillColor=#d5e8d4;strokeColor=#82b366;" parent="77e6c97f196da883-2" vertex="1">
          <mxGeometry x="20" y="155" width="100" height="60" as="geometry" />
        </mxCell>
        <mxCell id="77e6c97f196da883-8" value="define empty objects + libraries" style="rounded=1;whiteSpace=wrap;html=1;shadow=0;labelBackgroundColor=none;strokeWidth=1;fontFamily=Verdana;fontSize=8;align=center;" parent="77e6c97f196da883-2" vertex="1">
          <mxGeometry x="20" y="65" width="100" height="60" as="geometry" />
        </mxCell>
        <mxCell id="77e6c97f196da883-26" style="edgeStyle=orthogonalEdgeStyle;rounded=1;html=1;labelBackgroundColor=none;startArrow=none;startFill=0;startSize=5;endArrow=classicThin;endFill=1;endSize=5;jettySize=auto;orthogonalLoop=1;strokeWidth=1;fontFamily=Verdana;fontSize=8" parent="77e6c97f196da883-2" source="77e6c97f196da883-8" target="77e6c97f196da883-11" edge="1">
          <mxGeometry relative="1" as="geometry" />
        </mxCell>
        <mxCell id="xfDl3HpRMZ30rcegmR8i-3" value="" style="edgeStyle=orthogonalEdgeStyle;rounded=0;orthogonalLoop=1;jettySize=auto;html=1;" edge="1" parent="77e6c97f196da883-2" source="77e6c97f196da883-10" target="xfDl3HpRMZ30rcegmR8i-2">
          <mxGeometry relative="1" as="geometry" />
        </mxCell>
        <mxCell id="xfDl3HpRMZ30rcegmR8i-2" value="Read or generate data" style="rounded=1;whiteSpace=wrap;html=1;shadow=0;labelBackgroundColor=none;strokeWidth=1;fontFamily=Verdana;fontSize=8;align=center;" vertex="1" parent="77e6c97f196da883-2">
          <mxGeometry x="20" y="330" width="100" height="60" as="geometry" />
        </mxCell>
        <mxCell id="xfDl3HpRMZ30rcegmR8i-5" value="" style="edgeStyle=orthogonalEdgeStyle;rounded=0;orthogonalLoop=1;jettySize=auto;html=1;" edge="1" parent="77e6c97f196da883-2" source="xfDl3HpRMZ30rcegmR8i-2" target="xfDl3HpRMZ30rcegmR8i-4">
          <mxGeometry relative="1" as="geometry" />
        </mxCell>
        <mxCell id="xfDl3HpRMZ30rcegmR8i-4" value="Metropolis Hastings Loop&lt;br&gt;&lt;br&gt;run_metropolis_MCMC" style="rounded=1;whiteSpace=wrap;html=1;shadow=0;labelBackgroundColor=none;strokeWidth=1;fontFamily=Verdana;fontSize=8;align=center;fillColor=#d5e8d4;strokeColor=#82b366;" vertex="1" parent="77e6c97f196da883-2">
          <mxGeometry x="20" y="420" width="100" height="60" as="geometry" />
        </mxCell>
        <mxCell id="77e6c97f196da883-3" value="functions in the code" style="swimlane;html=1;startSize=20;" parent="77e6c97f196da883-1" vertex="1">
          <mxGeometry x="160" y="20" width="160" height="730" as="geometry" />
        </mxCell>
        <mxCell id="xfDl3HpRMZ30rcegmR8i-6" value="proposal" style="ellipse;whiteSpace=wrap;html=1;rounded=1;shadow=0;fontFamily=Verdana;fontSize=8;strokeWidth=1;fillColor=#fff2cc;strokeColor=#d6b656;" vertex="1" parent="77e6c97f196da883-3">
          <mxGeometry x="68" y="460" width="70" height="60" as="geometry" />
        </mxCell>
        <mxCell id="xfDl3HpRMZ30rcegmR8i-8" value="f (likelihood)" style="ellipse;whiteSpace=wrap;html=1;rounded=1;shadow=0;fontFamily=Verdana;fontSize=8;strokeWidth=1;fillColor=#fff2cc;strokeColor=#d6b656;" vertex="1" parent="77e6c97f196da883-3">
          <mxGeometry x="65" y="380" width="70" height="60" as="geometry" />
        </mxCell>
        <mxCell id="77e6c97f196da883-6" value="called functions" style="swimlane;html=1;startSize=20;" parent="77e6c97f196da883-1" vertex="1">
          <mxGeometry x="320" y="20" width="160" height="730" as="geometry" />
        </mxCell>
        <mxCell id="xfDl3HpRMZ30rcegmR8i-10" value="likelihoodGaussian and likelihoodMRA @&lt;br&gt;likelihoodK_general.R" style="shape=hexagon;perimeter=hexagonPerimeter2;whiteSpace=wrap;html=1;fixedSize=1;rounded=1;shadow=0;fontFamily=Verdana;fontSize=8;strokeWidth=1;fillColor=#e1d5e7;strokeColor=#9673a6;" vertex="1" parent="77e6c97f196da883-6">
          <mxGeometry x="30" y="410" width="120" height="80" as="geometry" />
        </mxCell>
        <mxCell id="xfDl3HpRMZ30rcegmR8i-15" value="gen_resolution @&lt;br&gt;1.MRA_resolution_general.R" style="shape=hexagon;perimeter=hexagonPerimeter2;whiteSpace=wrap;html=1;fixedSize=1;rounded=1;shadow=0;fontFamily=Verdana;fontSize=8;strokeWidth=1;fillColor=#e1d5e7;strokeColor=#9673a6;" vertex="1" parent="77e6c97f196da883-6">
          <mxGeometry x="20" y="145" width="120" height="80" as="geometry" />
        </mxCell>
        <mxCell id="xfDl3HpRMZ30rcegmR8i-7" value="" style="edgeStyle=orthogonalEdgeStyle;rounded=0;orthogonalLoop=1;jettySize=auto;html=1;" edge="1" parent="77e6c97f196da883-1" source="xfDl3HpRMZ30rcegmR8i-4" target="xfDl3HpRMZ30rcegmR8i-6">
          <mxGeometry relative="1" as="geometry" />
        </mxCell>
        <mxCell id="xfDl3HpRMZ30rcegmR8i-11" value="" style="edgeStyle=orthogonalEdgeStyle;rounded=0;orthogonalLoop=1;jettySize=auto;html=1;" edge="1" parent="77e6c97f196da883-1" source="xfDl3HpRMZ30rcegmR8i-8" target="xfDl3HpRMZ30rcegmR8i-10">
          <mxGeometry relative="1" as="geometry" />
        </mxCell>
        <mxCell id="xfDl3HpRMZ30rcegmR8i-16" value="" style="edgeStyle=orthogonalEdgeStyle;rounded=0;orthogonalLoop=1;jettySize=auto;html=1;" edge="1" parent="77e6c97f196da883-1" source="77e6c97f196da883-11" target="xfDl3HpRMZ30rcegmR8i-15">
          <mxGeometry relative="1" as="geometry" />
        </mxCell>
        <mxCell id="xfDl3HpRMZ30rcegmR8i-1" style="edgeStyle=orthogonalEdgeStyle;rounded=1;html=1;labelBackgroundColor=none;startArrow=none;startFill=0;startSize=5;endArrow=classicThin;endFill=1;endSize=5;jettySize=auto;orthogonalLoop=1;strokeWidth=1;fontFamily=Verdana;fontSize=8;entryX=0.5;entryY=0;entryDx=0;entryDy=0;" edge="1" parent="1" target="77e6c97f196da883-10">
          <mxGeometry relative="1" as="geometry">
            <mxPoint x="140" y="280" as="sourcePoint" />
            <mxPoint x="150" y="225" as="targetPoint" />
          </mxGeometry>
        </mxCell>
        <mxCell id="xfDl3HpRMZ30rcegmR8i-9" value="" style="edgeStyle=orthogonalEdgeStyle;rounded=0;orthogonalLoop=1;jettySize=auto;html=1;entryX=-0.029;entryY=0.3;entryDx=0;entryDy=0;entryPerimeter=0;" edge="1" parent="1">
          <mxGeometry relative="1" as="geometry">
            <mxPoint x="195" y="510" as="sourcePoint" />
            <mxPoint x="297.97" y="458" as="targetPoint" />
            <Array as="points">
              <mxPoint x="245" y="510" />
              <mxPoint x="245" y="460" />
              <mxPoint x="293" y="460" />
            </Array>
          </mxGeometry>
        </mxCell>
        <mxCell id="xfDl3HpRMZ30rcegmR8i-12" style="edgeStyle=orthogonalEdgeStyle;rounded=0;orthogonalLoop=1;jettySize=auto;html=1;" edge="1" parent="1" source="xfDl3HpRMZ30rcegmR8i-6">
          <mxGeometry relative="1" as="geometry">
            <mxPoint x="420" y="510" as="targetPoint" />
          </mxGeometry>
        </mxCell>
        <mxCell id="xfDl3HpRMZ30rcegmR8i-13" value="corrMaternduo, cEExpMat, cExpMat_mult @&lt;br&gt;covariances.R" style="shape=hexagon;perimeter=hexagonPerimeter2;whiteSpace=wrap;html=1;fixedSize=1;rounded=1;shadow=0;fontFamily=Verdana;fontSize=8;strokeWidth=1;fillColor=#e1d5e7;strokeColor=#9673a6;" vertex="1" parent="1">
          <mxGeometry x="420" y="630" width="120" height="80" as="geometry" />
        </mxCell>
        <mxCell id="xfDl3HpRMZ30rcegmR8i-14" value="" style="edgeStyle=orthogonalEdgeStyle;rounded=0;orthogonalLoop=1;jettySize=auto;html=1;" edge="1" parent="1" source="xfDl3HpRMZ30rcegmR8i-10" target="xfDl3HpRMZ30rcegmR8i-13">
          <mxGeometry relative="1" as="geometry" />
        </mxCell>
        <mxCell id="xfDl3HpRMZ30rcegmR8i-17" value="Visualization of chains" style="whiteSpace=wrap;html=1;rounded=1;shadow=0;fontFamily=Verdana;fontSize=8;strokeWidth=1;" vertex="1" parent="1">
          <mxGeometry x="80" y="620" width="120" height="60" as="geometry" />
        </mxCell>
        <mxCell id="xfDl3HpRMZ30rcegmR8i-18" value="" style="edgeStyle=orthogonalEdgeStyle;rounded=0;orthogonalLoop=1;jettySize=auto;html=1;" edge="1" parent="1" source="xfDl3HpRMZ30rcegmR8i-4" target="xfDl3HpRMZ30rcegmR8i-17">
          <mxGeometry relative="1" as="geometry" />
        </mxCell>
      </root>
    </mxGraphModel>
  </diagram>
</mxfile>
